<svg width="44" height="44" viewBox="0 0 44 44" fill="none" xmlns="http://www.w3.org/2000/svg">
<path fill-rule="evenodd" clip-rule="evenodd" d="M4.71429 21.9999C4.71429 12.4533 12.4534 4.71423 22 4.71423C31.5466 4.71423 39.2857 12.4533 39.2857 21.9999C39.2857 31.5466 31.5466 39.2857 22 39.2857C12.4534 39.2857 4.71429 31.5466 4.71429 21.9999ZM19.3341 12.6182C19.7422 13.0263 19.7422 13.6879 19.3341 14.096L17.1895 16.2407H28.8095C29.3866 16.2407 29.8545 16.7085 29.8545 17.2857C29.8545 17.8628 29.3866 18.3307 28.8095 18.3307H17.1895L19.3341 20.4753C19.7422 20.8834 19.7422 21.5451 19.3341 21.9532C18.926 22.3613 18.2644 22.3613 17.8563 21.9532L13.9277 18.0246C13.7317 17.8286 13.6216 17.5628 13.6216 17.2857C13.6216 17.0085 13.7317 16.7427 13.9277 16.5467L17.8563 12.6182C18.2644 12.2101 18.926 12.2101 19.3341 12.6182ZM24.9225 23.5246C24.5144 23.1165 24.5144 22.4548 24.9225 22.0467C25.3306 21.6386 25.9923 21.6386 26.4004 22.0467L30.3289 25.9753C30.5249 26.1713 30.635 26.4371 30.635 26.7142C30.635 26.9914 30.5249 27.2572 30.3289 27.4532L26.4004 31.3817C25.9923 31.7898 25.3306 31.7898 24.9225 31.3817C24.5144 30.9736 24.5144 30.312 24.9225 29.9039L27.0672 27.7592H15.4471C14.87 27.7592 14.4021 27.2914 14.4021 26.7142C14.4021 26.1371 14.87 25.6692 15.4471 25.6692H27.0672L24.9225 23.5246Z" fill="currentColor"/>
</svg>
