<svg width="44" height="44" viewBox="0 0 44 44" fill="none" xmlns="http://www.w3.org/2000/svg">
<path fill-rule="evenodd" clip-rule="evenodd" d="M22 39.2857C31.5466 39.2857 39.2857 31.5466 39.2857 21.9999C39.2857 12.4533 31.5466 4.71423 22 4.71423C12.4534 4.71423 4.71429 12.4533 4.71429 21.9999C4.71429 31.5466 12.4534 39.2857 22 39.2857ZM16.6032 22.6824C16.1123 22.1915 15.3163 22.1915 14.8254 22.6824C14.3344 23.1734 14.3344 23.9694 14.8254 24.4603L21.1111 30.746C21.602 31.237 22.398 31.237 22.8889 30.746L29.1746 24.4603C29.6656 23.9694 29.6656 23.1734 29.1746 22.6824C28.6837 22.1915 27.8877 22.1915 27.3968 22.6824L23.2571 26.8221V14.9285C23.2571 14.2342 22.6943 13.6714 22 13.6714C21.3057 13.6714 20.7429 14.2342 20.7429 14.9285V26.8221L16.6032 22.6824Z" fill="currentColor"/>
</svg>
