<svg width="16" height="15" viewBox="0 0 16 15" fill="none" xmlns="http://www.w3.org/2000/svg">
<path d="M6.29004 14.9692C5.84733 14.9692 5.47103 14.7783 5.16113 14.3965L0.861328 9.10059C0.739583 8.95671 0.651042 8.81559 0.595703 8.67725C0.545898 8.5389 0.520996 8.39502 0.520996 8.24561C0.520996 7.91357 0.631673 7.63965 0.853027 7.42383C1.07438 7.20801 1.35384 7.1001 1.69141 7.1001C2.07324 7.1001 2.39421 7.26335 2.6543 7.58984L6.25684 12.1553L13.2876 1.01562C13.4315 0.794271 13.5809 0.639323 13.7358 0.550781C13.8908 0.456706 14.0845 0.409668 14.3169 0.409668C14.6545 0.409668 14.9312 0.514811 15.147 0.725098C15.3628 0.935384 15.4707 1.20378 15.4707 1.53027C15.4707 1.66309 15.4486 1.7959 15.4043 1.92871C15.36 2.06152 15.2909 2.19987 15.1968 2.34375L7.42725 14.3633C7.16162 14.7673 6.78255 14.9692 6.29004 14.9692Z" fill="black"/>
</svg>
