<svg width="29" height="28" viewBox="0 0 29 28" fill="none" xmlns="http://www.w3.org/2000/svg">
<path d="M14.5 26C21.0634 26 26.5 20.575 26.5 14C26.5 7.43659 21.0634 2 14.4884 2C7.92498 2 2.5 7.43659 2.5 14C2.5 20.575 7.93659 26 14.5 26ZM14.5116 14.3369C13.9773 14.3369 13.6055 13.9535 13.6055 13.4076V8.33107C13.6055 7.78509 13.9773 7.40174 14.5116 7.40174C15.046 7.40174 15.4177 7.78509 15.4177 8.33107V13.4076C15.4177 13.9535 15.046 14.3369 14.5116 14.3369ZM14.5116 20.2614C11.0847 20.2614 8.25024 17.4153 8.25024 14C8.25024 12.304 8.97047 10.6312 10.2135 9.49274C11.1079 8.60987 12.3742 9.86447 11.4681 10.7706C10.5736 11.6186 10.0741 12.757 10.0741 14C10.0741 16.4743 12.0489 18.4492 14.5116 18.4492C16.9743 18.4492 18.9492 16.4743 18.9492 14C18.9492 12.757 18.438 11.6186 17.5552 10.7822C16.6491 9.87609 17.9037 8.62149 18.8098 9.49274C20.0528 10.6428 20.773 12.3156 20.773 14C20.773 17.4153 17.9385 20.2614 14.5116 20.2614Z" fill="#DF4141"/>
</svg>
