<svg width="20" height="20" viewBox="0 0 20 20" fill="none" xmlns="http://www.w3.org/2000/svg">
<path d="M5.25391 15.4239C5.57408 15.4239 5.83776 15.1829 5.83776 14.8773V11.663C6.01354 11.6042 6.54088 11.4279 7.33817 11.4279C9.62333 11.4279 11.1551 12.4974 13.365 12.4974C14.3318 12.4974 14.7775 12.3857 15.2609 12.1742C15.7129 11.9862 15.9766 11.6394 15.9766 11.0988V5.24591C15.9766 4.85807 15.6564 4.61714 15.2295 4.61714C14.8717 4.61714 14.3066 4.84044 13.3022 4.84044C11.1175 4.84044 9.55427 3.77094 7.2754 3.77094C6.32743 3.77094 5.89426 3.88259 5.38575 4.09414C4.94002 4.28806 4.66379 4.59363 4.66379 5.12839V14.8773C4.66379 15.177 4.93374 15.4239 5.25391 15.4239Z" fill="#DF4141"/>
</svg>
