<svg width="40" height="40" viewBox="0 0 40 40" fill="none" xmlns="http://www.w3.org/2000/svg">
<rect width="40" height="40" rx="20" fill="#1B0AD7"/>
<path d="M12.4678 27.8633H27.5234C29.4219 27.8633 30.4062 26.8877 30.4062 25.0156V14.3105C30.4062 12.4385 29.4219 11.4629 27.5234 11.4629H12.4678C10.5693 11.4629 9.58496 12.4297 9.58496 14.3105V25.0156C9.58496 26.8877 10.5693 27.8633 12.4678 27.8633ZM13.6895 16.2969C13.2236 16.2969 12.8281 15.9014 12.8281 15.4355C12.8281 14.9609 13.2236 14.5654 13.6895 14.5654C14.1729 14.5654 14.5508 14.9521 14.5508 15.4355C14.5508 15.9102 14.1729 16.2969 13.6895 16.2969ZM16.4053 16.0332C16.0625 16.0332 15.7988 15.7607 15.7988 15.4355C15.7988 15.0928 16.0713 14.8203 16.4053 14.8203H26.5918C26.917 14.8203 27.1982 15.0928 27.1982 15.4355C27.1982 15.7607 26.9258 16.0332 26.5918 16.0332H16.4053ZM13.6895 19.0742C13.2236 19.0742 12.8281 18.6787 12.8281 18.2129C12.8281 17.7383 13.2236 17.3428 13.6895 17.3428C14.1729 17.3428 14.5508 17.7295 14.5508 18.2129C14.5508 18.6875 14.1729 19.0742 13.6895 19.0742ZM16.4053 18.8193C16.0713 18.8193 15.7988 18.5381 15.7988 18.2129C15.7988 17.8789 16.0713 17.5977 16.4053 17.5977H22.0742C22.4082 17.5977 22.6807 17.8789 22.6807 18.2129C22.6807 18.5381 22.4082 18.8193 22.0742 18.8193H16.4053ZM13.6895 21.834C13.2148 21.834 12.8281 21.4561 12.8281 20.9727C12.8281 20.5068 13.2148 20.1201 13.6895 20.1201C14.1729 20.1201 14.5508 20.498 14.5508 20.9727C14.5508 21.4561 14.1729 21.834 13.6895 21.834ZM16.4053 21.5879C16.0625 21.5879 15.7988 21.3242 15.7988 20.9727C15.7988 20.6387 16.0625 20.3838 16.4053 20.3838H26.5918C26.9258 20.3838 27.1982 20.6387 27.1982 20.9727C27.1982 21.3242 26.9258 21.5879 26.5918 21.5879H16.4053ZM13.6895 24.752C13.2236 24.752 12.8281 24.3564 12.8281 23.8818C12.8281 23.416 13.2236 23.0205 13.6895 23.0205C14.1729 23.0205 14.5508 23.4072 14.5508 23.8818C14.5508 24.3652 14.1729 24.752 13.6895 24.752ZM16.4053 24.4971C16.0713 24.4971 15.7988 24.2246 15.7988 23.8818C15.7988 23.5566 16.0625 23.2842 16.4053 23.2842H22.0742C22.417 23.2842 22.6807 23.5566 22.6807 23.8818C22.6807 24.2246 22.4082 24.4971 22.0742 24.4971H16.4053Z" fill="white"/>
</svg>
