<svg width="21" height="20" viewBox="0 0 21 20" fill="none" xmlns="http://www.w3.org/2000/svg">
<path d="M10.5 1.6665C5.89999 1.6665 2.16666 5.39984 2.16666 9.99984C2.16666 14.5998 5.89999 18.3332 10.5 18.3332C15.1 18.3332 18.8333 14.5998 18.8333 9.99984C18.8333 5.39984 15.1 1.6665 10.5 1.6665ZM9.66666 13.3332V9.99984C9.66666 9.5396 10.0398 9.1665 10.5 9.1665C10.9602 9.1665 11.3333 9.5396 11.3333 9.99984V13.3332C11.3333 13.7934 10.9602 14.1665 10.5 14.1665C10.0398 14.1665 9.66666 13.7934 9.66666 13.3332ZM9.45845 6.87482V6.45833C9.45845 5.9981 9.83155 5.625 10.2918 5.625H10.7084C11.1686 5.625 11.5417 5.9981 11.5417 6.45833V6.87482C11.5417 7.33506 11.1686 7.70815 10.7084 7.70815H10.2918C9.83155 7.70815 9.45845 7.33506 9.45845 6.87482Z" fill="currentColor"/>
</svg>
