<svg width="40" height="32" viewBox="0 0 40 32" fill="none" xmlns="http://www.w3.org/2000/svg">
<path d="M18.2868 7.18977C18.6985 5.94934 18.9043 5.32912 19.2087 5.15723C19.4722 5.00846 19.7894 5.00846 20.0529 5.15723C20.3573 5.32912 20.5631 5.94934 20.9748 7.18977L22.442 11.6105C22.5592 11.9635 22.6178 12.14 22.7234 12.2715C22.8166 12.3876 22.9356 12.4781 23.0698 12.5351C23.2218 12.5997 23.4002 12.6035 23.757 12.6111L28.2249 12.7064C29.4785 12.7332 30.1054 12.7466 30.3555 12.9966C30.572 13.2131 30.67 13.5291 30.6164 13.8374C30.5543 14.1937 30.0547 14.5904 29.0555 15.3838L25.4945 18.2113C25.2101 18.4371 25.0679 18.55 24.9812 18.6958C24.9045 18.8246 24.8591 18.971 24.8488 19.1224C24.8372 19.2937 24.8888 19.4726 24.9922 19.8303L26.2862 24.31C26.6493 25.5669 26.8309 26.1954 26.6811 26.5219C26.5515 26.8044 26.2948 26.9997 25.9982 27.0415C25.6555 27.0898 25.1408 26.7148 24.1116 25.9647L20.4435 23.2915C20.1506 23.078 20.0041 22.9713 19.8449 22.9299C19.7043 22.8934 19.5573 22.8934 19.4167 22.9299C19.2575 22.9713 19.111 23.078 18.8181 23.2915L15.15 25.9647C14.1208 26.7148 13.6061 27.0898 13.2634 27.0415C12.9668 26.9997 12.7101 26.8044 12.5805 26.5219C12.4307 26.1954 12.6123 25.5669 12.9754 24.31L14.2694 19.8303C14.3727 19.4726 14.4244 19.2937 14.4128 19.1224C14.4025 18.971 14.3571 18.8246 14.2804 18.6958C14.1937 18.55 14.0515 18.4371 13.7671 18.2113L10.2061 15.3838C9.20687 14.5904 8.70727 14.1937 8.64524 13.8374C8.59155 13.5291 8.68958 13.2131 8.90608 12.9966C9.15624 12.7466 9.78307 12.7332 11.0367 12.7064L15.5046 12.6111C15.8614 12.6035 16.0398 12.5997 16.1918 12.5351C16.326 12.4781 16.445 12.3876 16.5382 12.2715C16.6438 12.14 16.7024 11.9635 16.8196 11.6105L18.2868 7.18977Z" fill="currentColor"/>
</svg>
