<svg width="41" height="32" viewBox="0 0 41 32" fill="none" xmlns="http://www.w3.org/2000/svg">
<path fill-rule="evenodd" clip-rule="evenodd" d="M32.3586 11.67L30.3312 6.93946L30.3312 6.93943C30.0306 6.23804 29.8803 5.88735 29.6383 5.62991C29.4243 5.40238 29.16 5.22813 28.8666 5.1211C28.5346 5 28.1531 5 27.39 5H13.6101C12.847 5 12.4655 5 12.1335 5.1211C11.8401 5.22813 11.5758 5.40238 11.3618 5.62991C11.1198 5.88735 10.9695 6.23805 10.6689 6.93946L8.64148 11.67H32.3586ZM10.5 17.5206C11.0456 17.7207 11.635 17.83 12.25 17.83C13.2631 17.83 14.2077 17.5326 15 17.0217C15.7924 17.5326 16.737 17.83 17.75 17.83C18.7631 17.83 19.7077 17.5326 20.5 17.0217C21.2924 17.5326 22.237 17.83 23.25 17.83C24.2631 17.83 25.2077 17.5326 26 17.0217C26.7924 17.5326 27.737 17.83 28.75 17.83C29.3651 17.83 29.9545 17.7207 30.5 17.5206V23.8C30.5 24.9201 30.5 25.4802 30.2821 25.908C30.0903 26.2843 29.7844 26.5903 29.408 26.782C28.9802 27 28.4202 27 27.3 27H13.7001C12.5799 27 12.0199 27 11.5921 26.782C11.2157 26.5903 10.9098 26.2843 10.718 25.908C10.5 25.4802 10.5 24.9201 10.5 23.8V17.5206ZM12.5 21.6C12.5 21.0399 12.5 20.7599 12.609 20.546C12.7049 20.3578 12.8578 20.2049 13.046 20.109C13.2599 20 13.5399 20 14.1 20H17.9C18.4601 20 18.7401 20 18.954 20.109C19.1422 20.2049 19.2951 20.3578 19.391 20.546C19.5 20.7599 19.5 21.0399 19.5 21.6V23.4C19.5 23.9601 19.5 24.2401 19.391 24.454C19.2951 24.6422 19.1422 24.7951 18.954 24.891C18.7401 25 18.4601 25 17.9 25H14.1C13.5399 25 13.2599 25 13.046 24.891C12.8578 24.7951 12.7049 24.6422 12.609 24.454C12.5 24.2401 12.5 23.9601 12.5 23.4V21.6ZM12.25 16.5C10.2629 16.5 8.63683 14.9545 8.50818 13H32.4918C32.3631 14.9545 30.737 16.5 28.75 16.5C27.6634 16.5 26.6849 16.0379 26 15.2995C25.3151 16.0379 24.3365 16.5 23.25 16.5C22.1634 16.5 21.1849 16.0379 20.5 15.2995C19.8151 16.0379 18.8365 16.5 17.75 16.5C16.6635 16.5 15.6849 16.0379 15 15.2995C14.3151 16.0379 13.3365 16.5 12.25 16.5Z" fill="currentColor"/>
</svg>
