<svg width="40" height="32" viewBox="0 0 40 32" fill="none" xmlns="http://www.w3.org/2000/svg">
<path d="M7 12.4C7 10.1598 7 9.03969 7.43597 8.18404C7.81947 7.43139 8.43139 6.81947 9.18404 6.43597C10.0397 6 11.1598 6 13.4 6H27.6C29.8402 6 30.9603 6 31.816 6.43597C32.5686 6.81947 33.1805 7.43139 33.564 8.18404C33.8979 8.8394 33.9761 9.6499 33.9944 11H27C25.1362 11 24.2044 11 23.4693 11.3045C22.4892 11.7105 21.7105 12.4892 21.3045 13.4693C21 14.2044 21 15.1362 21 17C21 18.8638 21 19.7956 21.3045 20.5307C21.7105 21.5108 22.4892 22.2895 23.4693 22.6955C24.2044 23 25.1362 23 27 23H33.9944C33.9761 24.3501 33.8979 25.1606 33.564 25.816C33.1805 26.5686 32.5686 27.1805 31.816 27.564C30.9603 28 29.8402 28 27.6 28H13.4C11.1598 28 10.0397 28 9.18404 27.564C8.43139 27.1805 7.81947 26.5686 7.43597 25.816C7 24.9603 7 23.8402 7 21.6V12.4Z" fill="currentColor"/>
<path fill-rule="evenodd" clip-rule="evenodd" d="M22.75 16.75C22.75 15.3499 22.75 14.6498 23.0225 14.115C23.2622 13.6446 23.6446 13.2622 24.115 13.0225C24.6498 12.75 25.3499 12.75 26.75 12.75H31.25C32.6501 12.75 33.3502 12.75 33.885 13.0225C34.3554 13.2622 34.7378 13.6446 34.9775 14.115C35.25 14.6498 35.25 15.3499 35.25 16.75V17.25C35.25 18.6501 35.25 19.3502 34.9775 19.885C34.7378 20.3554 34.3554 20.7378 33.885 20.9775C33.3502 21.25 32.6501 21.25 31.25 21.25H26.75C25.3499 21.25 24.6498 21.25 24.115 20.9775C23.6446 20.7378 23.2622 20.3554 23.0225 19.885C22.75 19.3502 22.75 18.6501 22.75 17.25V16.75ZM29 17C29 18.1046 28.1046 19 27 19C25.8954 19 25 18.1046 25 17C25 15.8954 25.8954 15 27 15C28.1046 15 29 15.8954 29 17Z" fill="currentColor"/>
</svg>
