<svg width="48" height="48" viewBox="0 0 48 48" fill="none" xmlns="http://www.w3.org/2000/svg">
<path fill-rule="evenodd" clip-rule="evenodd" d="M24 48C37.2548 48 48 37.2548 48 24C48 10.7452 37.2548 0 24 0C10.7452 0 0 10.7452 0 24C0 37.2548 10.7452 48 24 48ZM31.4931 24.1433C32.1747 24.825 33.2799 24.825 33.9615 24.1433C34.6431 23.4617 34.6431 22.3565 33.9615 21.6749L25.2342 12.9476C24.5526 12.266 23.4474 12.266 22.7658 12.9476L14.0385 21.6749C13.3569 22.3565 13.3569 23.4617 14.0385 24.1433C14.7201 24.825 15.8253 24.825 16.507 24.1433L22.2545 18.3957V34.9091C22.2545 35.8731 23.036 36.6545 24 36.6545C24.964 36.6545 25.7455 35.8731 25.7455 34.9091V18.3957L31.4931 24.1433Z" fill="currentColor"/>
</svg>
