<svg width="20" height="21" viewBox="0 0 20 21" fill="none" xmlns="http://www.w3.org/2000/svg">
<g clip-path="url(#clip0_64_9967)">
<path d="M10 20.8256C15.5228 20.8256 20 16.3484 20 10.8256C20 5.30274 15.5228 0.825592 10 0.825592C4.47715 0.825592 0 5.30274 0 10.8256C0 16.3484 4.47715 20.8256 10 20.8256Z" fill="currentColor"/>
<path fill-rule="evenodd" clip-rule="evenodd" d="M4.52657 10.72C7.44177 9.44991 9.3857 8.61258 10.3583 8.20802C13.1355 7.05293 13.7125 6.85228 14.0886 6.84565C14.1714 6.84419 14.3563 6.8647 14.4761 6.96191C14.5773 7.044 14.6051 7.1549 14.6185 7.23273C14.6318 7.31056 14.6484 7.48786 14.6352 7.62639C14.4847 9.20763 13.8335 13.0449 13.5022 14.8159C13.362 15.5653 13.086 15.8165 12.8188 15.8411C12.2381 15.8945 11.7971 15.4573 11.2347 15.0886C10.3545 14.5117 9.85732 14.1526 9.003 13.5896C8.01569 12.9389 8.65572 12.5814 9.21839 11.9969C9.36564 11.844 11.9243 9.51671 11.9738 9.30558C11.98 9.27918 11.9858 9.18076 11.9273 9.12879C11.8688 9.07682 11.7825 9.09459 11.7202 9.10872C11.632 9.12876 10.226 10.0581 7.50219 11.8967C7.1031 12.1707 6.74161 12.3043 6.41773 12.2973C6.06068 12.2896 5.37385 12.0954 4.86327 11.9294C4.23702 11.7259 3.73929 11.6182 3.78263 11.2725C3.8052 11.0924 4.05318 10.9083 4.52657 10.72Z" fill="white"/>
</g>
<defs>
<clipPath id="clip0_64_9967">
<rect width="20" height="20" fill="white" transform="translate(0 0.825592)"/>
</clipPath>
</defs>
</svg>
