<svg width="48" height="48" viewBox="0 0 48 48" fill="none" xmlns="http://www.w3.org/2000/svg">
<path d="M31.5833 25.9089C32.1816 25.9089 32.6667 26.3939 32.6667 26.9922V31.3256C32.6667 33.1205 31.2116 34.5756 29.4167 34.5756H18.5833C16.7884 34.5756 15.3333 33.1205 15.3333 31.3256V26.9922C15.3333 26.3939 15.8184 25.9089 16.4167 25.9089C17.015 25.9089 17.5 26.3939 17.5 26.9922V31.3256C17.5 31.9239 17.985 32.4089 18.5833 32.4089H29.4167C30.015 32.4089 30.5 31.9239 30.5 31.3256V26.9922C30.5 26.3939 30.985 25.9089 31.5833 25.9089ZM24 13.9922L24.021 13.9925C24.0462 13.9929 24.0715 13.9943 24.0967 13.9965L24 13.9922C24.0548 13.9922 24.1087 13.9963 24.1614 14.0042C24.1798 14.007 24.1987 14.0103 24.2175 14.0142C24.2413 14.0189 24.2648 14.0246 24.288 14.0309C24.3049 14.0357 24.3216 14.0407 24.3382 14.0461C24.3594 14.053 24.3809 14.0608 24.402 14.0693C24.4212 14.077 24.4399 14.0851 24.4585 14.0937C24.4809 14.1042 24.503 14.1155 24.5246 14.1275C24.5378 14.1347 24.551 14.1424 24.5641 14.1504C24.5918 14.1674 24.6187 14.1856 24.6448 14.2049C24.6528 14.2108 24.6607 14.2168 24.6684 14.2229C24.6713 14.2252 24.6744 14.2277 24.6776 14.2302L24.766 14.3095L29.641 19.1845C30.0641 19.6076 30.0641 20.2935 29.641 20.7166C29.218 21.1397 28.532 21.1397 28.109 20.7166L25.0833 17.6907V27.5339C25.0833 28.1322 24.5983 28.6172 24 28.6172C23.4017 28.6172 22.9167 28.1322 22.9167 27.5339V17.6907L19.891 20.7166C19.468 21.1397 18.782 21.1397 18.359 20.7166C17.9359 20.2935 17.9359 19.6076 18.359 19.1845L23.234 14.3095L23.3224 14.2302C23.3256 14.2277 23.3287 14.2252 23.3319 14.2228L23.234 14.3095C23.2723 14.2712 23.3128 14.2363 23.3551 14.2049C23.3813 14.1856 23.4082 14.1674 23.436 14.1505C23.449 14.1424 23.4622 14.1347 23.4756 14.1273C23.497 14.1155 23.5191 14.1042 23.5416 14.0937C23.5601 14.0851 23.5788 14.077 23.5977 14.0694C23.6191 14.0608 23.6406 14.053 23.6623 14.0459C23.6784 14.0407 23.6951 14.0357 23.7118 14.0311C23.7352 14.0246 23.7587 14.0189 23.7825 14.0141C23.8013 14.0103 23.8202 14.007 23.8392 14.0042C23.8597 14.001 23.881 13.9985 23.9025 13.9966C23.9289 13.9943 23.9545 13.9929 23.9801 13.9924C23.9861 13.9923 23.9931 13.9922 24 13.9922Z" fill="currentColor"/>
</svg>
