<svg width="16" height="16" viewBox="4 4 16 16" fill="none" xmlns="http://www.w3.org/2000/svg">
<path d="M4 12C4 7.58172 7.58172 4 12 4C16.4183 4 20 7.58172 20 12C20 16.4183 16.4183 20 12 20C7.58172 20 4 16.4183 4 12Z" fill="currentColor"/>
<path d="M12.0004 15C12.5526 15 13.0004 15.4477 13.0004 16C13.0004 16.5523 12.5526 17 12.0004 17C11.4481 17 11.0004 16.5523 11.0004 16C11.0004 15.4477 11.4481 15 12.0004 15ZM12.5027 7C12.7788 7 13.0027 7.22386 13.0027 7.5C13.0027 7.50607 13.0026 7.51215 13.0023 7.51822L12.7939 13.2349C12.7883 13.3877 12.7493 13.5237 12.6827 13.637C12.6161 13.7504 12.522 13.8411 12.4063 13.9035C12.2906 13.9659 12.1533 14 12.0004 14C11.8474 14 11.7101 13.9659 11.5944 13.9035C11.4787 13.8411 11.3846 13.7504 11.318 13.637C11.2514 13.5237 11.2124 13.3877 11.2068 13.2349L10.9984 7.51822C10.9883 7.24226 11.2039 7.01039 11.4798 7.00033L12.5027 7Z" fill="white"/>
</svg>
