<svg width="16" height="16" viewBox="0 0 16 16" fill="none" xmlns="http://www.w3.org/2000/svg">
<path fill-rule="evenodd" clip-rule="evenodd" d="M8 0C3.58172 0 0 3.58172 0 8C0 12.4183 3.58172 16 8 16C12.4183 16 16 12.4183 16 8C16 3.58172 12.4183 0 8 0ZM6.51407 8.82832C6.30768 8.64486 5.99164 8.66345 5.80818 8.86984C5.62472 9.07623 5.64331 9.39227 5.8497 9.57573L7.66788 11.1919C7.85733 11.3603 8.14281 11.3603 8.33225 11.1919L10.1504 9.57572C10.3568 9.39227 10.3754 9.07623 10.192 8.86984C10.0085 8.66345 9.69246 8.64486 9.48607 8.82832L8.50007 9.70476V5C8.50007 4.72386 8.27621 4.5 8.00007 4.5C7.72392 4.5 7.50007 4.72386 7.50007 5L7.50007 9.70476L6.51407 8.82832Z" fill="currentColor"/>
</svg>
