<svg width="16" height="16" viewBox="4 4 16 16" fill="none" xmlns="http://www.w3.org/2000/svg">
<path d="M4 12C4 7.58172 7.58172 4 12 4C16.4183 4 20 7.58172 20 12C20 16.4183 16.4183 20 12 20C7.58172 20 4 16.4183 4 12Z" fill="currentColor"/>
<g clip-path="url(#clip0_220_2865)">
<path fill-rule="evenodd" clip-rule="evenodd" d="M11.4856 8.57143C11.4856 8.85429 11.717 9.08571 11.9999 9.08571C12.2827 9.08571 12.5142 8.85429 12.5142 8.57143V6.51429C12.5142 6.23143 12.2827 6 11.9999 6C11.717 6 11.4856 6.23143 11.4856 6.51429V8.57143ZM13.2689 8.77364C13.1275 9.01861 13.2122 9.33472 13.4572 9.47615C13.7021 9.61758 14.0183 9.53289 14.1597 9.28792L15.1883 7.50644C15.3297 7.26147 15.245 6.94535 15 6.80392C14.7551 6.66249 14.4389 6.74718 14.2975 6.99215L13.2689 8.77364ZM14.5238 10.5429C14.3824 10.2979 14.4671 9.9818 14.7121 9.84037L16.4935 8.8118C16.7385 8.67037 17.0546 8.75505 17.1961 9.00002C17.3375 9.245 17.2528 9.56111 17.0078 9.70254L15.2263 10.7311C14.9814 10.8725 14.6653 10.7879 14.5238 10.5429ZM15.4286 11.4857C15.1457 11.4857 14.9143 11.7171 14.9143 12C14.9143 12.2829 15.1457 12.5143 15.4286 12.5143H17.4857C17.7686 12.5143 18 12.2829 18 12C18 11.7171 17.7686 11.4857 17.4857 11.4857H15.4286ZM14.5238 13.4571C14.6653 13.2121 14.9814 13.1275 15.2263 13.2689L17.0078 14.2975C17.2528 14.4389 17.3375 14.755 17.1961 15C17.0546 15.2449 16.7385 15.3296 16.4935 15.1882L14.7121 14.1596C14.4671 14.0182 14.3824 13.7021 14.5238 13.4571ZM14.1597 14.7121C14.0183 14.4671 13.7021 14.3824 13.4572 14.5238C13.2122 14.6653 13.1275 14.9814 13.2689 15.2263L14.2975 17.0078C14.4389 17.2528 14.7551 17.3375 15 17.1961C15.245 17.0546 15.3297 16.7385 15.1883 16.4935L14.1597 14.7121ZM11.9999 14.9143C12.2827 14.9143 12.5142 15.1457 12.5142 15.4286V17.4857C12.5142 17.7686 12.2827 18 11.9999 18C11.717 18 11.4856 17.7686 11.4856 17.4857V15.4286C11.4856 15.1457 11.717 14.9143 11.9999 14.9143ZM10.731 15.2263C10.8724 14.9814 10.7877 14.6653 10.5428 14.5238C10.2978 14.3824 9.98167 14.4671 9.84025 14.7121L8.81167 16.4935C8.67025 16.7385 8.75493 17.0546 8.9999 17.1961C9.24487 17.3375 9.56099 17.2528 9.70242 17.0078L10.731 15.2263ZM9.47609 13.4571C9.61752 13.7021 9.53283 14.0182 9.28786 14.1596L7.50638 15.1882C7.2614 15.3296 6.94529 15.2449 6.80386 15C6.66243 14.755 6.74712 14.4389 6.99209 14.2975L8.77358 13.2689C9.01855 13.1275 9.33466 13.2121 9.47609 13.4571ZM8.57143 12.5143C8.85429 12.5143 9.08571 12.2829 9.08571 12C9.08571 11.7171 8.85429 11.4857 8.57143 11.4857H6.51429C6.23143 11.4857 6 11.7171 6 12C6 12.2829 6.23143 12.5143 6.51429 12.5143H8.57143ZM9.47609 10.5429C9.33466 10.7879 9.01855 10.8725 8.77358 10.7311L6.99209 9.70254C6.74712 9.56111 6.66243 9.245 6.80386 9.00002C6.94529 8.75505 7.2614 8.67037 7.50638 8.8118L9.28786 9.84037C9.53283 9.9818 9.61752 10.2979 9.47609 10.5429ZM9.84025 9.28792C9.98167 9.53289 10.2978 9.61758 10.5428 9.47615C10.7877 9.33472 10.8724 9.01861 10.731 8.77364L9.70242 6.99215C9.56099 6.74718 9.24487 6.66249 8.9999 6.80392C8.75493 6.94535 8.67025 7.26147 8.81167 7.50644L9.84025 9.28792Z" fill="white"/>
</g>
<defs>
<clipPath id="clip0_220_2865">
<rect width="12" height="12" fill="white" transform="translate(6 6)"/>
</clipPath>
</defs>
</svg>
