<svg width="44" height="45" viewBox="0 0 44 45" fill="none" xmlns="http://www.w3.org/2000/svg">
<path fill-rule="evenodd" clip-rule="evenodd" d="M22 39.7857C31.5466 39.7857 39.2857 32.0466 39.2857 22.4999C39.2857 12.9533 31.5466 5.21423 22 5.21423C12.4534 5.21423 4.71428 12.9533 4.71428 22.4999C4.71428 32.0466 12.4534 39.7857 22 39.7857ZM27.3968 22.6032C27.8877 23.0941 28.6837 23.0941 29.1746 22.6032C29.6656 22.1122 29.6656 21.3162 29.1746 20.8253L22.8889 14.5396C22.398 14.0486 21.602 14.0486 21.1111 14.5396L14.8253 20.8253C14.3344 21.3162 14.3344 22.1122 14.8253 22.6032C15.3163 23.0941 16.1123 23.0941 16.6032 22.6032L20.7428 18.4635V30.3571C20.7428 31.0514 21.3057 31.6142 22 31.6142C22.6943 31.6142 23.2571 31.0514 23.2571 30.3571V18.4635L27.3968 22.6032Z" fill="currentColor"/>
</svg>
