<svg width="29" height="28" viewBox="0 0 29 28" fill="none" xmlns="http://www.w3.org/2000/svg">
<path d="M14.5 2C21.1274 2 26.5 7.37258 26.5 14C26.5 20.6274 21.1274 26 14.5 26C7.87258 26 2.5 20.6274 2.5 14C2.5 7.37258 7.87258 2 14.5 2ZM14.5 4C8.97715 4 4.5 8.47715 4.5 14C4.5 19.5228 8.97715 24 14.5 24C20.0228 24 24.5 19.5228 24.5 14C24.5 8.47715 20.0228 4 14.5 4ZM14.5 8C15.0523 8 15.5 8.44772 15.5 9V13H19.5C20.0523 13 20.5 13.4477 20.5 14C20.5 14.5523 20.0523 15 19.5 15H15.5V19C15.5 19.5523 15.0523 20 14.5 20C13.9477 20 13.5 19.5523 13.5 19V15H9.5C8.94772 15 8.5 14.5523 8.5 14C8.5 13.4477 8.94772 13 9.5 13H13.5V9C13.5 8.44772 13.9477 8 14.5 8Z" fill="currentColor"/>
</svg>
