<svg width="20" height="21" viewBox="0 0 20 21" fill="none" xmlns="http://www.w3.org/2000/svg">
<g clip-path="url(#clip0_82_1620)">
<path d="M10.0063 10.5221C11.3811 10.5221 12.5426 9.30422 12.5426 7.72846C12.5426 6.19038 11.3749 5.01013 10.0063 5.01013C8.6377 5.01013 7.47001 6.20921 7.47629 7.74102C7.47629 9.30422 8.63142 10.5221 10.0063 10.5221ZM2.73647 10.6665C3.93555 10.6665 4.94629 9.59928 4.94629 8.2307C4.94629 6.88722 3.92927 5.86393 2.73647 5.86393C1.54995 5.86393 0.526651 6.90606 0.532928 8.24325C0.532928 9.59928 1.54367 10.6665 2.73647 10.6665ZM17.2573 10.6665C18.4501 10.6665 19.4608 9.59928 19.4608 8.24325C19.4671 6.90606 18.4438 5.86393 17.2573 5.86393C16.0707 5.86393 15.0474 6.88722 15.0474 8.2307C15.0474 9.59928 16.0645 10.6665 17.2573 10.6665ZM-0.722652 16.3669H3.98577C3.31404 15.4063 4.04228 13.5104 5.46108 12.3929C4.77051 11.9472 3.86649 11.6208 2.73647 11.6208C-0.0697501 11.6208 -1.88406 13.6862 -1.88406 15.3875C-1.88406 16.009 -1.57017 16.3669 -0.722652 16.3669ZM20.7164 16.3669C21.5639 16.3669 21.8778 16.009 21.8778 15.3875C21.8778 13.6862 20.0635 11.6208 17.2573 11.6208C16.1272 11.6208 15.2295 11.9472 14.5389 12.3929C15.9577 13.5104 16.686 15.4063 16.0142 16.3669H20.7164ZM6.08887 16.3606H13.9174C14.9533 16.3606 15.3111 16.0467 15.3111 15.4691C15.3111 13.8557 13.2582 11.6333 10.0063 11.6333C6.74805 11.6333 4.70146 13.8557 4.70146 15.4691C4.70146 16.0467 5.0593 16.3606 6.08887 16.3606Z" fill="currentColor"/>
</g>
<defs>
<clipPath id="clip0_82_1620">
<rect width="20" height="20" fill="white" transform="translate(0 0.825562)"/>
</clipPath>
</defs>
</svg>
