<svg width="20" height="21" viewBox="0 0 20 21" fill="none" xmlns="http://www.w3.org/2000/svg">
<g clip-path="url(#clip0_87_1638)">
<path d="M1.67188 4.65369C1.80469 4.07556 2.33594 3.99744 2.69531 4.37244C3.82812 5.56775 5.23438 5.6615 6.47656 5.6615C7.63281 5.6615 9.11719 5.34119 10.3828 5.34119C14.2188 5.34119 16.875 7.26306 16.875 11.0912C16.875 11.4506 16.8516 11.8099 16.8125 12.0287C16.7578 12.349 16.3906 12.4896 16.0938 12.2162C12.7266 9.13025 9.1875 11.4584 6.47656 8.66931C6.24219 8.43494 5.98438 8.63806 6.07812 8.88806C7.39844 12.3881 12.6797 10.4584 16.1562 13.6771C16.9766 14.4427 18.5547 16.349 18.5547 17.4349C18.5547 18.1537 18.0625 18.6771 17.4609 18.6771C17.1562 18.6771 16.8828 18.5209 16.7656 18.1381C16.3594 16.8568 16 15.8881 15.3594 14.9818C14.5781 15.849 13.0078 17.0287 10.3594 17.0287C4.96875 17.0287 1.4375 13.1224 1.4375 7.20837C1.4375 6.50525 1.5 5.45056 1.67188 4.65369Z" fill="currentColor"/>
</g>
<defs>
<clipPath id="clip0_87_1638">
<rect width="20" height="20" fill="white" transform="translate(0 0.825562)"/>
</clipPath>
</defs>
</svg>
