<svg width="20" height="21" viewBox="0 0 20 21" fill="none" xmlns="http://www.w3.org/2000/svg">
<path fill-rule="evenodd" clip-rule="evenodd" d="M5.20189 7.91667C5.51745 8.8842 6.42704 9.58333 7.49992 9.58333C8.5728 9.58333 9.48238 8.8842 9.79795 7.91667C12.0875 7.91667 14.377 7.91667 16.6666 7.91667C17.0808 7.91667 17.4166 7.58088 17.4166 7.16667C17.4166 6.75245 17.0808 6.41667 16.6666 6.41667C14.377 6.41667 12.0875 6.41667 9.79795 6.41667C9.78985 6.39136 9.80069 6.42508 9.79795 6.41667C9.48238 5.44913 8.5728 4.75 7.49992 4.75C6.42704 4.75 5.51745 5.44913 5.20189 6.41667C4.57901 6.41667 3.95613 6.41667 3.33325 6.41667C2.91904 6.41667 2.58325 6.75245 2.58325 7.16667C2.58325 7.58088 2.91904 7.91667 3.33325 7.91667C3.95613 7.91667 4.57901 7.91667 5.20189 7.91667ZM7.49992 6.25C6.99366 6.25 6.58325 6.66041 6.58325 7.16667C6.58325 7.67293 6.99366 8.08333 7.49992 8.08333C8.00618 8.08333 8.41659 7.67293 8.41659 7.16667C8.41659 6.66041 8.00618 6.25 7.49992 6.25Z" fill="currentColor"/>
<path fill-rule="evenodd" clip-rule="evenodd" d="M2.58325 13.8333C2.58325 13.4191 2.91904 13.0833 3.33325 13.0833C5.6228 13.0833 7.91234 13.0833 10.2019 13.0833C10.5175 12.1158 11.427 11.4167 12.4999 11.4167C13.5728 11.4167 14.4824 12.1158 14.7979 13.0833C14.7979 13.0833 16.2321 13.0833 16.6666 13.0833C17.0808 13.0833 17.4166 13.4191 17.4166 13.8333C17.4166 14.2475 17.0808 14.5833 16.6666 14.5833C16.4814 14.5833 14.7979 14.5833 14.7979 14.5833C14.4824 15.5509 13.5728 16.25 12.4999 16.25C11.427 16.25 10.5175 15.5509 10.2019 14.5833C7.91234 14.5833 5.6228 14.5833 3.33325 14.5833C2.91904 14.5833 2.58325 14.2475 2.58325 13.8333ZM11.5833 13.8333C11.5833 13.3271 11.9937 12.9167 12.4999 12.9167C13.0062 12.9167 13.4166 13.3271 13.4166 13.8333C13.4166 14.3396 13.0062 14.75 12.4999 14.75C11.9937 14.75 11.5833 14.3396 11.5833 13.8333Z" fill="currentColor"/>
</svg>
