<svg width="12" height="12" viewBox="0 0 12 12" fill="none" xmlns="http://www.w3.org/2000/svg">
<path d="M6 1.5C7.38071 1.5 8.5 2.61929 8.5 4L8.4995 5H8.71806C9.16382 5 9.32546 5.04641 9.48842 5.13357C9.65139 5.22072 9.77928 5.34861 9.86643 5.51158C9.95359 5.67454 10 5.83618 10 6.28194V9.21806C10 9.66382 9.95359 9.82546 9.86643 9.98842C9.77928 10.1514 9.65139 10.2793 9.48842 10.3664C9.32546 10.4536 9.16382 10.5 8.71806 10.5H3.28194C2.83618 10.5 2.67454 10.4536 2.51158 10.3664C2.34861 10.2793 2.22072 10.1514 2.13357 9.98842C2.04641 9.82546 2 9.66382 2 9.21806V6.28194C2 5.83618 2.04641 5.67454 2.13357 5.51158C2.22072 5.34861 2.34861 5.22072 2.51158 5.13357C2.67454 5.04641 2.83618 5 3.28194 5H3.4995L3.5 4C3.5 2.61929 4.61929 1.5 6 1.5ZM6 2.5C5.17157 2.5 4.5 3.17157 4.5 4L4.4995 5H7.4995L7.5 4C7.5 3.17157 6.82843 2.5 6 2.5Z" fill="currentColor"/>
</svg>
