<svg width="41" height="32" viewBox="0 0 41 32" fill="none" xmlns="http://www.w3.org/2000/svg">
<g clip-path="url(#clip0_493_1857)">
<path d="M20.5 26.0371C14.9824 26.0371 10.4121 21.4766 10.4121 15.9492C10.4121 10.4316 14.9727 5.86133 20.4902 5.86133C26.0176 5.86133 30.5879 10.4316 30.5879 15.9492C30.5879 21.4766 26.0176 26.0371 20.5 26.0371ZM15.5586 17.1602H20.4902C20.9297 17.1602 21.2715 16.8184 21.2715 16.3887V9.98242C21.2715 9.55273 20.9297 9.21094 20.4902 9.21094C20.0605 9.21094 19.7188 9.55273 19.7188 9.98242V15.6172H15.5586C15.1191 15.6172 14.7871 15.9492 14.7871 16.3887C14.7871 16.8184 15.1191 17.1602 15.5586 17.1602Z" fill="currentColor"/>
</g>
<defs>
<clipPath id="clip0_493_1857">
<rect width="40" height="32" fill="transparent" transform="translate(0.5)"/>
</clipPath>
</defs>
</svg>
