<svg width="41" height="32" viewBox="0 0 41 32" fill="none" xmlns="http://www.w3.org/2000/svg">
<path opacity="0.55" fill-rule="evenodd" clip-rule="evenodd" d="M19.4714 9.14286C19.4714 9.70857 19.9343 10.1714 20.5 10.1714C21.0657 10.1714 21.5286 9.70857 21.5286 9.14286V5.02857C21.5286 4.46286 21.0657 4 20.5 4C19.9343 4 19.4714 4.46286 19.4714 5.02857V9.14286ZM23.0378 9.54729C22.755 10.0372 22.9244 10.6695 23.4143 10.9523C23.9042 11.2352 24.5365 11.0658 24.8193 10.5759L26.8765 7.01289C27.1593 6.52295 26.99 5.89072 26.5 5.60786C26.0101 5.325 25.3778 5.49437 25.095 5.98432L23.0378 9.54729ZM25.5477 13.0857C25.2648 12.5958 25.4342 11.9635 25.9241 11.6807L29.4871 9.62355C29.9771 9.34069 30.6093 9.51006 30.8921 10C31.175 10.4899 31.0056 11.1222 30.5157 11.405L26.9527 13.4622C26.4628 13.745 25.8305 13.5757 25.5477 13.0857ZM27.3572 14.9714C26.7914 14.9714 26.3286 15.4343 26.3286 16C26.3286 16.5657 26.7914 17.0286 27.3572 17.0286H31.4714C32.0372 17.0286 32.5 16.5657 32.5 16C32.5 15.4343 32.0372 14.9714 31.4714 14.9714H27.3572ZM25.5477 18.9143C25.8305 18.4243 26.4628 18.255 26.9527 18.5378L30.5157 20.595C31.0056 20.8778 31.175 21.51 30.8921 22C30.6093 22.4899 29.9771 22.6593 29.4871 22.3764L25.9241 20.3193C25.4342 20.0364 25.2648 19.4042 25.5477 18.9143ZM24.8193 21.4241C24.5365 20.9342 23.9042 20.7648 23.4143 21.0477C22.9244 21.3305 22.755 21.9628 23.0378 22.4527L25.095 26.0157C25.3778 26.5056 26.0101 26.675 26.5 26.3921C26.99 26.1093 27.1593 25.4771 26.8765 24.9871L24.8193 21.4241ZM20.5 21.8286C21.0657 21.8286 21.5286 22.2914 21.5286 22.8571V26.9714C21.5286 27.5371 21.0657 28 20.5 28C19.9343 28 19.4714 27.5371 19.4714 26.9714V22.8571C19.4714 22.2914 19.9343 21.8286 20.5 21.8286ZM17.9622 22.4527C18.245 21.9628 18.0757 21.3305 17.5857 21.0477C17.0958 20.7648 16.4635 20.9342 16.1807 21.4241L14.1235 24.9871C13.8407 25.4771 14.0101 26.1093 14.5 26.3921C14.9899 26.675 15.6222 26.5056 15.905 26.0157L17.9622 22.4527ZM15.4523 18.9143C15.7352 19.4042 15.5658 20.0364 15.0759 20.3193L11.5129 22.3764C11.0229 22.6593 10.3907 22.4899 10.1079 22C9.825 21.51 9.99437 20.8778 10.4843 20.595L14.0473 18.5378C14.5372 18.255 15.1695 18.4243 15.4523 18.9143ZM13.6429 17.0286C14.2086 17.0286 14.6714 16.5657 14.6714 16C14.6714 15.4343 14.2086 14.9714 13.6429 14.9714H9.52857C8.96286 14.9714 8.5 15.4343 8.5 16C8.5 16.5657 8.96286 17.0286 9.52857 17.0286H13.6429ZM15.4523 13.0857C15.1695 13.5757 14.5372 13.745 14.0473 13.4622L10.4843 11.405C9.99437 11.1222 9.825 10.4899 10.1079 10C10.3907 9.51006 11.0229 9.34069 11.5129 9.62355L15.0759 11.6807C15.5658 11.9635 15.7352 12.5958 15.4523 13.0857ZM16.1807 10.5759C16.4635 11.0658 17.0958 11.2352 17.5857 10.9523C18.0757 10.6695 18.245 10.0372 17.9622 9.54729L15.905 5.98432C15.6222 5.49437 14.9899 5.325 14.5 5.60786C14.0101 5.89072 13.8407 6.52295 14.1235 7.01289L16.1807 10.5759Z" fill="currentColor"/>
</svg>
