<svg width="20" height="21" viewBox="0 0 20 21" fill="none" xmlns="http://www.w3.org/2000/svg">
<path fill-rule="evenodd" clip-rule="evenodd" d="M7.5 8.32556C7.5 7.98038 7.77982 7.70056 8.125 7.70056H12.5C12.8452 7.70056 13.125 7.98038 13.125 8.32556V12.7006C13.125 13.0457 12.8452 13.3256 12.5 13.3256C12.1548 13.3256 11.875 13.0457 11.875 12.7006V9.83444L7.62944 14.08C7.38536 14.3241 6.98964 14.3241 6.74556 14.08C6.50148 13.8359 6.50148 13.4402 6.74556 13.1961L10.9911 8.95056H8.125C7.77982 8.95056 7.5 8.67074 7.5 8.32556Z" fill="currentColor"/>
<path fill-rule="evenodd" clip-rule="evenodd" d="M3.81282 4.63838C5.3954 3.05579 7.58397 2.07556 10 2.07556C12.416 2.07556 14.6046 3.05579 16.1872 4.63838C17.7698 6.22096 18.75 8.40953 18.75 10.8256C18.75 13.2416 17.7698 15.4302 16.1872 17.0127C14.6046 18.5953 12.416 19.5756 10 19.5756C7.58397 19.5756 5.3954 18.5953 3.81282 17.0127C2.23023 15.4302 1.25 13.2416 1.25 10.8256C1.25 8.40953 2.23023 6.22096 3.81282 4.63838ZM10 3.63806C8.01501 3.63806 6.21921 4.44169 4.91767 5.74323C3.61613 7.04477 2.8125 8.84057 2.8125 10.8256C2.8125 12.8106 3.61613 14.6064 4.91767 15.9079C6.21921 17.2094 8.01501 18.0131 10 18.0131C11.985 18.0131 13.7808 17.2094 15.0823 15.9079C16.3839 14.6064 17.1875 12.8106 17.1875 10.8256C17.1875 8.84057 16.3839 7.04477 15.0823 5.74323C13.7808 4.44169 11.985 3.63806 10 3.63806Z" fill="currentColor"/>
</svg>
