<svg width="29" height="28" viewBox="0 0 29 28" fill="none" xmlns="http://www.w3.org/2000/svg">
<rect x="0.5" width="28" height="28" rx="14" fill="#1B0AD7"/>
<path d="M9.22744 19.5047H19.7664C21.0953 19.5047 21.7844 18.8218 21.7844 17.5113V10.0178C21.7844 8.70732 21.0953 8.02441 19.7664 8.02441H9.22744C7.89854 8.02441 7.20947 8.70117 7.20947 10.0178V17.5113C7.20947 18.8218 7.89854 19.5047 9.22744 19.5047ZM10.0826 11.4082C9.75654 11.4082 9.47969 11.1313 9.47969 10.8053C9.47969 10.473 9.75654 10.1962 10.0826 10.1962C10.421 10.1962 10.6855 10.4669 10.6855 10.8053C10.6855 11.1375 10.421 11.4082 10.0826 11.4082ZM11.9837 11.2236C11.7438 11.2236 11.5592 11.0329 11.5592 10.8053C11.5592 10.5653 11.7499 10.3746 11.9837 10.3746H19.1143C19.3419 10.3746 19.5388 10.5653 19.5388 10.8053C19.5388 11.0329 19.348 11.2236 19.1143 11.2236H11.9837ZM10.0826 13.3523C9.75654 13.3523 9.47969 13.0755 9.47969 12.7494C9.47969 12.4172 9.75654 12.1403 10.0826 12.1403C10.421 12.1403 10.6855 12.411 10.6855 12.7494C10.6855 13.0816 10.421 13.3523 10.0826 13.3523ZM11.9837 13.1739C11.7499 13.1739 11.5592 12.9771 11.5592 12.7494C11.5592 12.5156 11.7499 12.3187 11.9837 12.3187H15.952C16.1857 12.3187 16.3765 12.5156 16.3765 12.7494C16.3765 12.9771 16.1857 13.1739 15.952 13.1739H11.9837ZM10.0826 15.2842C9.75039 15.2842 9.47969 15.0196 9.47969 14.6812C9.47969 14.3552 9.75039 14.0845 10.0826 14.0845C10.421 14.0845 10.6855 14.349 10.6855 14.6812C10.6855 15.0196 10.421 15.2842 10.0826 15.2842ZM11.9837 15.1119C11.7438 15.1119 11.5592 14.9273 11.5592 14.6812C11.5592 14.4475 11.7438 14.269 11.9837 14.269H19.1143C19.348 14.269 19.5388 14.4475 19.5388 14.6812C19.5388 14.9273 19.348 15.1119 19.1143 15.1119H11.9837ZM10.0826 17.3268C9.75654 17.3268 9.47969 17.0499 9.47969 16.7177C9.47969 16.3916 9.75654 16.1147 10.0826 16.1147C10.421 16.1147 10.6855 16.3854 10.6855 16.7177C10.6855 17.0561 10.421 17.3268 10.0826 17.3268ZM11.9837 17.1483C11.7499 17.1483 11.5592 16.9576 11.5592 16.7177C11.5592 16.49 11.7438 16.2993 11.9837 16.2993H15.952C16.1919 16.2993 16.3765 16.49 16.3765 16.7177C16.3765 16.9576 16.1857 17.1483 15.952 17.1483H11.9837Z" fill="white"/>
</svg>
