<svg width="17" height="18" viewBox="0 0 17 18" fill="none" xmlns="http://www.w3.org/2000/svg">
<path fill-rule="evenodd" clip-rule="evenodd" d="M1.75 7.80375C1.75 4.7365 4.2365 2.25 7.30375 2.25C10.371 2.25 12.8575 4.7365 12.8575 7.80375C12.8575 10.871 10.371 13.3575 7.30375 13.3575C4.2365 13.3575 1.75 10.871 1.75 7.80375ZM7.30375 0.75C3.40807 0.75 0.25 3.90807 0.25 7.80375C0.25 11.6994 3.40807 14.8575 7.30375 14.8575C8.97759 14.8575 10.5152 14.2745 11.7247 13.3005L15.5028 17.0634C15.7962 17.3557 16.2711 17.3548 16.5634 17.0613C16.8557 16.7678 16.8548 16.2929 16.5613 16.0006L12.787 12.2414C13.7691 11.0294 14.3575 9.48527 14.3575 7.80375C14.3575 3.90807 11.1994 0.75 7.30375 0.75Z" fill="currentColor"/>
</svg>
