<svg width="20" height="21" viewBox="0 0 20 21" fill="none" xmlns="http://www.w3.org/2000/svg">
<g clip-path="url(#clip0_64_9975)">
<path d="M10 20.8256C15.5228 20.8256 20 16.3484 20 10.8256C20 5.30274 15.5228 0.825592 10 0.825592C4.47715 0.825592 0 5.30274 0 10.8256C0 16.3484 4.47715 20.8256 10 20.8256Z" fill="currentColor"/>
<path d="M10 16.8256C13.2901 16.8256 16.0058 14.1099 16.0058 10.8256C16.0058 7.54126 13.2843 4.82559 9.9942 4.82559C6.70986 4.82559 4 7.54126 4 10.8256C4 14.1099 6.71567 16.8256 10 16.8256ZM6.50677 7.18729C7.08124 6.63604 7.78917 6.21244 8.57253 5.97453C8.16054 6.38652 7.81238 6.97259 7.55126 7.68052C7.14507 7.55286 6.7911 7.38459 6.50677 7.18729ZM11.4333 5.98033C12.2166 6.21824 12.9188 6.63604 13.4932 7.1931C13.2089 7.39039 12.8607 7.55286 12.4545 7.68633C12.1934 6.97259 11.8453 6.39232 11.4333 5.98033ZM8.35783 7.88362C8.67698 7.03062 9.11219 6.40393 9.59381 6.17762V8.01128C9.1528 7.99387 8.74081 7.95325 8.35783 7.88362ZM10.4062 6.17762C10.8878 6.40393 11.3288 7.03062 11.6422 7.88362C11.265 7.95325 10.8472 7.99387 10.4062 8.01128V6.17762ZM4.95745 10.4194C5.03868 9.43874 5.40426 8.53352 5.97292 7.79078C6.32108 8.0519 6.7795 8.2782 7.31335 8.44648C7.16248 9.04416 7.06963 9.71147 7.04062 10.4194H4.95745ZM12.9594 10.4194C12.9362 9.71147 12.8375 9.04416 12.6867 8.44648C13.2205 8.2782 13.6789 8.0519 14.0271 7.79078C14.5957 8.53352 14.9613 9.43874 15.0426 10.4194H12.9594ZM10.4062 10.4194V8.82366C10.9226 8.80625 11.4217 8.74822 11.8801 8.65538C12.0135 9.19503 12.1064 9.79271 12.1296 10.4194H10.4062ZM7.87041 10.4194C7.89942 9.79271 7.98646 9.19503 8.11992 8.65538C8.58414 8.74822 9.07737 8.80625 9.59381 8.82366V10.4194H7.87041ZM4.95745 11.2318H7.04062C7.06383 11.9513 7.16248 12.6244 7.31915 13.2337C6.7911 13.402 6.33269 13.6225 5.98453 13.8778C5.41006 13.1293 5.03868 12.2182 4.95745 11.2318ZM7.87041 11.2318H9.59381V12.8565C9.08317 12.8739 8.58414 12.932 8.12573 13.0248C7.98646 12.4736 7.89942 11.8643 7.87041 11.2318ZM10.4062 12.8565V11.2318H12.1354C12.1064 11.8643 12.0135 12.4736 11.8743 13.0248C11.4159 12.932 10.9226 12.8739 10.4062 12.8565ZM12.6867 13.2337C12.8375 12.6244 12.9362 11.9513 12.9652 11.2318H15.0426C14.9613 12.2182 14.5899 13.1293 14.0155 13.8778C13.6673 13.6225 13.2147 13.402 12.6867 13.2337ZM10.4062 13.6689C10.8472 13.6863 11.2534 13.7269 11.6364 13.7966C11.323 14.6322 10.8878 15.2531 10.4062 15.4794V13.6689ZM8.36944 13.7966C8.74661 13.7269 9.15861 13.6863 9.59381 13.6689V15.4794C9.11799 15.2531 8.68279 14.6322 8.36944 13.7966ZM6.52418 14.4755C6.80851 14.284 7.15667 14.1215 7.55706 13.9939C7.81238 14.6902 8.16054 15.2647 8.56093 15.6709C7.78917 15.4387 7.09284 15.0209 6.52418 14.4755ZM12.4487 13.9939C12.8491 14.1215 13.1973 14.284 13.4816 14.4755C12.9072 15.0209 12.2108 15.4387 11.4391 15.6709C11.8453 15.2647 12.1876 14.6902 12.4487 13.9939Z" fill="white"/>
</g>
<defs>
<clipPath id="clip0_64_9975">
<rect width="20" height="20" fill="white" transform="translate(0 0.825592)"/>
</clipPath>
</defs>
</svg>
