<svg width="11" height="12" viewBox="0 0 11 12" fill="none" xmlns="http://www.w3.org/2000/svg">
<path d="M5.33447 0.129883C5.41195 0.129883 5.49219 0.146484 5.5752 0.179688C5.6582 0.212891 5.74398 0.265462 5.83252 0.337402L10.1406 3.82373C10.2734 3.93994 10.3398 4.10319 10.3398 4.31348C10.3398 4.50716 10.2734 4.67041 10.1406 4.80322C10.0133 4.93604 9.8501 5.00244 9.65088 5.00244C9.5734 5.00244 9.49316 4.98584 9.41016 4.95264C9.32715 4.91943 9.24414 4.86963 9.16113 4.80322L5.33447 1.70703L1.50781 4.80322C1.41927 4.86963 1.3335 4.91943 1.25049 4.95264C1.17301 4.98584 1.09554 5.00244 1.01807 5.00244C0.818848 5.00244 0.652832 4.93604 0.52002 4.80322C0.392741 4.67041 0.329102 4.50716 0.329102 4.31348C0.329102 4.10319 0.392741 3.93994 0.52002 3.82373L4.83643 0.337402C4.92497 0.265462 5.00798 0.212891 5.08545 0.179688C5.16846 0.146484 5.25146 0.129883 5.33447 0.129883ZM5.33447 11.7676C5.25146 11.7676 5.16846 11.751 5.08545 11.7178C5.00798 11.6846 4.92497 11.632 4.83643 11.5601L0.52002 8.07373C0.392741 7.95752 0.329102 7.79427 0.329102 7.58398C0.329102 7.3903 0.392741 7.22705 0.52002 7.09424C0.652832 6.96143 0.818848 6.89502 1.01807 6.89502C1.09554 6.89502 1.17301 6.91162 1.25049 6.94482C1.3335 6.97803 1.41927 7.02783 1.50781 7.09424L5.33447 10.1904L9.16113 7.09424C9.24414 7.02783 9.32715 6.97803 9.41016 6.94482C9.49316 6.91162 9.5734 6.89502 9.65088 6.89502C9.8501 6.89502 10.0133 6.96143 10.1406 7.09424C10.2734 7.22705 10.3398 7.3903 10.3398 7.58398C10.3398 7.79427 10.2734 7.95752 10.1406 8.07373L5.83252 11.5601C5.74398 11.632 5.6582 11.6846 5.5752 11.7178C5.49219 11.751 5.41195 11.7676 5.33447 11.7676Z" fill="currentColor"/>
</svg>
