<svg width="48" height="48" viewBox="0 0 48 48" fill="none" xmlns="http://www.w3.org/2000/svg">
<path d="M22.2271 15.082C22.6901 13.7502 22.9215 13.0843 23.2638 12.8997C23.5601 12.74 23.9168 12.74 24.213 12.8997C24.5553 13.0843 24.7868 13.7502 25.2497 15.082L26.8996 19.8285C27.0313 20.2075 27.0972 20.397 27.2159 20.5382C27.3208 20.6629 27.4545 20.76 27.6055 20.8212C27.7764 20.8905 27.9771 20.8946 28.3783 20.9028L33.4022 21.0052C34.8119 21.0339 35.5168 21.0483 35.7981 21.3168C36.0415 21.5492 36.1518 21.8884 36.0914 22.2195C36.0216 22.6021 35.4599 23.028 34.3363 23.8798L30.332 26.9157C30.0122 27.1581 29.8523 27.2793 29.7547 27.4359C29.6686 27.5741 29.6175 27.7314 29.6059 27.8939C29.5929 28.0778 29.651 28.2699 29.7672 28.654L31.2223 33.4637C31.6306 34.8133 31.8347 35.4881 31.6663 35.8386C31.5205 36.1419 31.2319 36.3516 30.8984 36.3965C30.513 36.4484 29.9343 36.0457 28.7769 35.2403L24.6523 32.3702C24.3229 32.1409 24.1582 32.0263 23.9792 31.9819C23.8211 31.9427 23.6558 31.9427 23.4976 31.9819C23.3186 32.0263 23.1539 32.1409 22.8245 32.3702L18.6999 35.2403C17.5425 36.0457 16.9638 36.4484 16.5785 36.3965C16.2449 36.3516 15.9563 36.1419 15.8105 35.8386C15.6421 35.4881 15.8463 34.8133 16.2546 33.4637L17.7097 28.654C17.8259 28.2699 17.884 28.0778 17.8709 27.8939C17.8593 27.7314 17.8083 27.5741 17.7221 27.4359C17.6245 27.2793 17.4646 27.1581 17.1449 26.9157L13.1406 23.8798C12.017 23.028 11.4552 22.6021 11.3854 22.2195C11.3251 21.8884 11.4353 21.5492 11.6788 21.3168C11.9601 21.0483 12.6649 21.0339 14.0746 21.0052L19.0986 20.9028C19.4998 20.8946 19.7004 20.8905 19.8713 20.8212C20.0223 20.76 20.156 20.6629 20.2609 20.5382C20.3796 20.397 20.4455 20.2075 20.5773 19.8285L22.2271 15.082Z" fill="currentColor" />
</svg>
