<svg width="20" height="20" viewBox="0 0 20 20" fill="none" xmlns="http://www.w3.org/2000/svg">
<path fill-rule="evenodd" clip-rule="evenodd" d="M9.12863 2.32808C8.49257 2.61128 8.00538 3.45512 7.03098 5.14282L2.45342 13.0714C1.47903 14.7591 0.991831 15.6029 1.06461 16.2954C1.12809 16.8994 1.44487 17.448 1.93619 17.805C2.49947 18.2143 3.47386 18.2143 5.42265 18.2143H14.5778C16.5266 18.2143 17.501 18.2143 18.0642 17.805C18.5556 17.448 18.8723 16.8994 18.9358 16.2954C19.0086 15.6029 18.5214 14.7591 17.547 13.0714L12.9694 5.14282C11.995 3.45512 11.5079 2.61128 10.8718 2.32808C10.317 2.08107 9.68343 2.08107 9.12863 2.32808ZM10.7723 7.57127L10.691 12.1786C10.6844 12.5553 10.3772 12.8571 10.0005 12.8571C9.62381 12.8571 9.31659 12.5553 9.30995 12.1786L9.22864 7.57127C9.22102 7.13966 9.56881 6.78568 10.0005 6.78568C10.4322 6.78568 10.78 7.13966 10.7723 7.57127ZM10.8931 14.6428C10.8931 15.1359 10.4933 15.5357 10.0002 15.5357C9.5071 15.5357 9.10736 15.1359 9.10736 14.6428C9.10736 14.1497 9.5071 13.75 10.0002 13.75C10.4933 13.75 10.8931 14.1497 10.8931 14.6428Z" fill="currentColor"/>
</svg>
